<svg width="32" height="32" viewBox="0 0 32 32" fill="none" xmlns="http://www.w3.org/2000/svg">
<circle cx="16" cy="16" r="15.5" stroke="#E5E7EB"/>
<mask id="mask0_595_1568" style="mask-type:luminance" maskUnits="userSpaceOnUse" x="8" y="8" width="15" height="15">
<path fillRule="evenodd" clipRule="evenodd" d="M8.6665 8.66699H22.9952V22.9962H8.6665V8.66699Z" fill="white"/>
</mask>
<g mask="url(#mask0_595_1568)">
<path fillRule="evenodd" clipRule="evenodd" d="M12.0721 21.117C12.4588 21.117 12.8235 21.2637 13.2095 21.419C15.5741 22.5123 18.3708 22.015 20.1928 20.1937C22.5968 17.7883 22.5968 13.8757 20.1928 11.4717C19.0288 10.3077 17.4808 9.66699 15.8328 9.66699C14.1841 9.66699 12.6355 10.3083 11.4721 11.4723C9.64946 13.2937 9.15346 16.0903 10.2368 18.4323C10.3928 18.8183 10.5435 19.1943 10.5435 19.585C10.5435 19.975 10.4095 20.3677 10.2915 20.7143C10.1941 20.9997 10.0468 21.4303 10.1415 21.525C10.2341 21.621 10.6675 21.4697 10.9535 21.3717C11.2968 21.2543 11.6861 21.1197 12.0721 21.117ZM15.8161 22.9963C14.7975 22.9963 13.7721 22.781 12.8128 22.337C12.5301 22.2237 12.2655 22.117 12.0755 22.117C11.8568 22.1183 11.5628 22.2197 11.2788 22.3177C10.6961 22.5177 9.9708 22.767 9.43413 22.2323C8.89946 21.697 9.14613 20.9737 9.3448 20.3917C9.4428 20.105 9.54346 19.809 9.54346 19.585C9.54346 19.401 9.4548 19.1663 9.3188 18.8283C8.07013 16.1317 8.64746 12.8817 10.7655 10.765C12.1175 9.41233 13.9168 8.66699 15.8321 8.66699C17.7475 8.66699 19.5475 9.41166 20.8995 10.7643C23.6941 13.559 23.6941 18.1057 20.8995 20.9003C19.5295 22.271 17.6848 22.9963 15.8161 22.9963Z" fill="#252539"/>
</g>
<path fillRule="evenodd" clipRule="evenodd" d="M18.4643 16.7757C18.0963 16.7757 17.7949 16.4777 17.7949 16.109C17.7949 15.7404 18.0903 15.4424 18.4583 15.4424H18.4643C18.8323 15.4424 19.1309 15.7404 19.1309 16.109C19.1309 16.4777 18.8323 16.7757 18.4643 16.7757Z" fill="#252539"/>
<path fillRule="evenodd" clipRule="evenodd" d="M15.7914 16.7757C15.4234 16.7757 15.1221 16.4777 15.1221 16.109C15.1221 15.7404 15.4167 15.4424 15.7854 15.4424H15.7914C16.1594 15.4424 16.4581 15.7404 16.4581 16.109C16.4581 16.4777 16.1594 16.7757 15.7914 16.7757Z" fill="#252539"/>
<path fillRule="evenodd" clipRule="evenodd" d="M13.1186 16.7757C12.7506 16.7757 12.4492 16.4777 12.4492 16.109C12.4492 15.7404 12.7446 15.4424 13.1126 15.4424H13.1186C13.4866 15.4424 13.7852 15.7404 13.7852 16.109C13.7852 16.4777 13.4866 16.7757 13.1186 16.7757Z" fill="#252539"/>
</svg>
